<svg width="23" height="29" viewBox="0 0 23 29" fill="none" xmlns="http://www.w3.org/2000/svg">
<path d="M11.0833 0C7.22927 0 4.10494 3.09883 4.10494 6.92143C4.10494 10.744 7.22927 13.8429 11.0833 13.8429C14.9374 13.8429 18.0617 10.744 18.0617 6.92143C18.0617 3.09883 14.9374 0 11.0833 0Z" fill="#9DC24A"/>
<path d="M15.2015 16.9221C12.4733 16.4903 9.69334 16.4903 6.96515 16.9221L6.67272 16.9684C2.82858 17.5769 0 20.8657 0 24.7267C0 26.8106 1.70329 28.5 3.8044 28.5H18.3623C20.4634 28.5 22.1667 26.8106 22.1667 24.7267C22.1667 20.8657 19.3381 17.5769 15.4939 16.9684L15.2015 16.9221Z" fill="#9DC24A"/>
</svg>
