<svg width="34" height="34" viewBox="0 0 34 34" fill="none" xmlns="http://www.w3.org/2000/svg">
<g clip-path="url(#clip0_4626_6062)">
<path d="M19.8334 20.1904V31.1667H5.66675C5.66631 29.4368 6.06189 27.7298 6.82317 26.1764C7.58446 24.623 8.69124 23.2645 10.0587 22.205C11.4262 21.1454 13.0181 20.413 14.7124 20.0638C16.4067 19.7146 18.1584 19.7579 19.8334 20.1904V20.1904ZM17.0001 18.4167C12.3038 18.4167 8.50008 14.613 8.50008 9.91675C8.50008 5.2205 12.3038 1.41675 17.0001 1.41675C21.6963 1.41675 25.5001 5.2205 25.5001 9.91675C25.5001 14.613 21.6963 18.4167 17.0001 18.4167ZM25.5001 24.0834V19.8334H28.3334V24.0834H32.5834V26.9167H28.3334V31.1667H25.5001V26.9167H21.2501V24.0834H25.5001Z" fill="#9DC24A"/>
</g>
<defs>
<clipPath id="clip0_4626_6062">
<rect width="34" height="34" fill="white"/>
</clipPath>
</defs>
</svg>
